<svg xmlns="http://www.w3.org/2000/svg" xmlns:xlink="http://www.w3.org/1999/xlink" version="1.1" data-diagram-type="SALT" style="width:196px;height:90px;background:#FFFFFF;" width="196px" height="90px" viewBox="0 0 196 90" zoomAndPan="magnify" preserveAspectRatio="none" contentStyleType="text/css"><?plantuml 1.2026.8?><defs/><g font-family="sans-serif" lengthAdjust="spacing"><text x="6" y="17.602" fill="#000" font-size="12" textLength="183.451">Long label to widen the column</text><rect x="8.5" y="24.633" width="21.156" height="18.133" fill="#EEE" style="stroke:#000;stroke-width:2.5;" rx="5" ry="5"/><text x="10.5" y="38.234" fill="#000" font-size="12" textLength="17.156">OK</text><text x="9" y="58.867" fill="#000" font-size="12" textLength="30.393">Input</text><line x1="7" y1="61.398" x2="50" y2="61.398" style="stroke:#000;stroke-width:1;"/><line x1="7" y1="58.398" x2="7" y2="60.398" style="stroke:#000;stroke-width:1;"/><line x1="50" y1="58.398" x2="50" y2="60.398" style="stroke:#000;stroke-width:1;"/><rect x="6" y="65.398" width="63" height="17.133" fill="#EEE" style="stroke:#000;stroke-width:1;"/><text x="8" y="79" fill="#000" font-size="12" textLength="39.422">Choice</text><line x1="58" y1="65.398" x2="58" y2="82.531" style="stroke:#000;stroke-width:1;"/><polygon points="61,71.398,67,71.398,64,77.531" fill="#000" style="stroke:#000;stroke-width:1;stroke-linejoin:miter;stroke-miterlimit:10;"/><line x1="5" y1="5" x2="190.451" y2="5" style="stroke:#000;stroke-width:1;"/><line x1="5" y1="84.531" x2="190.451" y2="84.531" style="stroke:#000;stroke-width:1;"/><line x1="5" y1="5" x2="5" y2="21.133" style="stroke:#000;stroke-width:1;"/><line x1="190.451" y1="21.133" x2="190.451" y2="46.266" style="stroke:#000;stroke-width:1;"/><line x1="190.451" y1="5" x2="190.451" y2="21.133" style="stroke:#000;stroke-width:1;"/><line x1="5" y1="64.398" x2="5" y2="84.531" style="stroke:#000;stroke-width:1;"/><line x1="5" y1="46.266" x2="5" y2="64.398" style="stroke:#000;stroke-width:1;"/><line x1="190.451" y1="64.398" x2="190.451" y2="84.531" style="stroke:#000;stroke-width:1;"/><line x1="5" y1="21.133" x2="5" y2="46.266" style="stroke:#000;stroke-width:1;"/><line x1="190.451" y1="46.266" x2="190.451" y2="64.398" style="stroke:#000;stroke-width:1;"/><?plantuml-src SoWkIImgAKxCAU6grkRooSzBLyX9J4hDKIZ9LoZFJ4dDKoZ9I5L8piyfpStZYlRtZkLIyimhA2rHuefppiZFJ4wDuwhbSaZDIm4RmMMePsHWPAPd0G00?></g></svg>