<svg xmlns="http://www.w3.org/2000/svg" xmlns:xlink="http://www.w3.org/1999/xlink" version="1.1" data-diagram-type="SALT" style="width:71px;height:61px;background:#FFFFFF;" width="71px" height="61px" viewBox="0 0 71 61" zoomAndPan="magnify" preserveAspectRatio="none" contentStyleType="text/css"><?plantuml 1.2026.8?><defs/><g font-family="sans-serif" lengthAdjust="spacing"><text x="7" y="18.602" fill="#000" font-size="12">A</text><text x="7" y="34.734" fill="#000" font-size="12">B</text><text x="7" y="50.867" fill="#000" font-size="12">C</text><line x1="18.303" y1="30.699" x2="29.303" y2="30.699" style="stroke:#AAA;stroke-width:1;"/><line x1="30.303" y1="30.699" x2="41.303" y2="30.699" style="stroke:#AAA;stroke-width:1;stroke-dasharray:1,2;"/><line x1="42.303" y1="29.699" x2="53.303" y2="29.699" style="stroke:#AAA;stroke-width:1;"/><line x1="42.303" y1="31.699" x2="53.303" y2="31.699" style="stroke:#AAA;stroke-width:1;"/><line x1="54.303" y1="30.699" x2="65.303" y2="30.699" style="stroke:#AAA;stroke-width:1.5;"/><line x1="5" y1="5" x2="17.303" y2="5" style="stroke:#000;stroke-width:1;"/><line x1="17.303" y1="55.398" x2="29.303" y2="55.398" style="stroke:#000;stroke-width:1;"/><line x1="17.303" y1="5" x2="29.303" y2="5" style="stroke:#000;stroke-width:1;"/><line x1="29.303" y1="55.398" x2="41.303" y2="55.398" style="stroke:#000;stroke-width:1;"/><line x1="29.303" y1="5" x2="41.303" y2="5" style="stroke:#000;stroke-width:1;"/><line x1="41.303" y1="55.398" x2="53.303" y2="55.398" style="stroke:#000;stroke-width:1;"/><line x1="41.303" y1="5" x2="53.303" y2="5" style="stroke:#000;stroke-width:1;"/><line x1="53.303" y1="55.398" x2="65.303" y2="55.398" style="stroke:#000;stroke-width:1;"/><line x1="53.303" y1="5" x2="65.303" y2="5" style="stroke:#000;stroke-width:1;"/><line x1="5" y1="55.398" x2="17.303" y2="55.398" style="stroke:#000;stroke-width:1;"/><line x1="5" y1="5" x2="5" y2="55.398" style="stroke:#000;stroke-width:1;"/><line x1="17.303" y1="5" x2="17.303" y2="55.398" style="stroke:#000;stroke-width:1;"/><line x1="29.303" y1="5" x2="29.303" y2="55.398" style="stroke:#000;stroke-width:1;"/><line x1="41.303" y1="5" x2="41.303" y2="55.398" style="stroke:#000;stroke-width:1;"/><line x1="53.303" y1="5" x2="53.303" y2="55.398" style="stroke:#000;stroke-width:1;"/><line x1="65.303" y1="5" x2="65.303" y2="55.398" style="stroke:#000;stroke-width:1;"/><?plantuml-src SoWkIImgAKxCAU6gLkQgLd3aSk9oLgXLg57GrGKIUdf0mjOMIDJLSTLoEQJcfO3LSXdg6HaOcUbP0000?></g></svg>