<svg xmlns="http://www.w3.org/2000/svg" xmlns:xlink="http://www.w3.org/1999/xlink" version="1.1" data-diagram-type="SALT" style="width:264px;height:56px;background:#FFFFFF;" width="264px" height="56px" viewBox="0 0 264 56" zoomAndPan="magnify" preserveAspectRatio="none" contentStyleType="text/css"><?plantuml 1.2026.8?><defs/><g font-family="sans-serif" lengthAdjust="spacing"><rect x="8.5" y="8.5" width="132" height="18.133" fill="#EEE" style="stroke:#000;stroke-width:2.5;" rx="5" ry="5"/><text x="34.141" y="22.102" fill="#000" font-size="12" textLength="25.986">Save</text><text x="63.924" y="22.102" fill="#000" font-size="12" textLength="50.936" font-weight="700">changes</text><text x="148" y="17.602" fill="#000" font-size="12" textLength="38.279" font-style="italic">Search</text><line x1="146" y1="20.133" x2="229" y2="20.133" style="stroke:#000;stroke-width:1;"/><line x1="146" y1="17.133" x2="146" y2="19.133" style="stroke:#000;stroke-width:1;"/><line x1="229" y1="17.133" x2="229" y2="19.133" style="stroke:#000;stroke-width:1;"/><rect x="6" y="31.133" width="135" height="17.133" fill="#EEE" style="stroke:#000;stroke-width:1;"/><text x="8" y="44.734" fill="#000" font-size="12" textLength="43.295">Choose</text><text x="55.092" y="44.734" fill="#000" font-size="12" textLength="30.586" font-weight="700">team</text><line x1="130" y1="31.133" x2="130" y2="48.266" style="stroke:#000;stroke-width:1;"/><polygon points="133,37.133,139,37.133,136,43.266" fill="#000" style="stroke:#000;stroke-width:1;stroke-linejoin:miter;stroke-miterlimit:10;"/><text x="165" y="42.734" fill="#000" font-size="12" textLength="51.053" font-weight="700">Selected</text><text x="219.85" y="42.734" fill="#000" font-size="12" textLength="37.699">option</text><ellipse cx="152" cy="38.199" rx="5" ry="5" fill="none" style="stroke:#000;stroke-width:1.5;"/><ellipse cx="152" cy="38.199" rx="2" ry="2" fill="#000" style="stroke:#000;stroke-width:1.5;"/><line x1="5" y1="5" x2="144" y2="5" style="stroke:#000;stroke-width:1;"/><line x1="144" y1="30.133" x2="258.549" y2="30.133" style="stroke:#000;stroke-width:1;"/><line x1="144" y1="5" x2="258.549" y2="5" style="stroke:#000;stroke-width:1;"/><line x1="5" y1="50.266" x2="144" y2="50.266" style="stroke:#000;stroke-width:1;"/><line x1="144" y1="50.266" x2="258.549" y2="50.266" style="stroke:#000;stroke-width:1;"/><line x1="5" y1="30.133" x2="144" y2="30.133" style="stroke:#000;stroke-width:1;"/><line x1="5" y1="5" x2="5" y2="30.133" style="stroke:#000;stroke-width:1;"/><line x1="144" y1="30.133" x2="144" y2="50.266" style="stroke:#000;stroke-width:1;"/><line x1="258.549" y1="30.133" x2="258.549" y2="50.266" style="stroke:#000;stroke-width:1;"/><line x1="144" y1="5" x2="144" y2="30.133" style="stroke:#000;stroke-width:1;"/><line x1="258.549" y1="5" x2="258.549" y2="30.133" style="stroke:#000;stroke-width:1;"/><line x1="5" y1="30.133" x2="5" y2="50.266" style="stroke:#000;stroke-width:1;"/><?plantuml-src SoWkIImgAKxCAU6gLkQA3auiIrNGqahEICnBJotMqefLg55Giicq2qvDB4hEiD7Fj5C00YMkEEUC_FnYaDAIrCHSBQque3gD24q5coIWqfpKv9BK51lz93k5_8AIpFmyhbekXzIy5B0jN8PwHWP6PdeM0000?></g></svg>