<svg xmlns="http://www.w3.org/2000/svg" xmlns:xlink="http://www.w3.org/1999/xlink" version="1.1" data-diagram-type="SALT" style="width:370px;height:144px;background:#FFFFFF;" width="370px" height="144px" viewBox="0 0 370 144" zoomAndPan="magnify" preserveAspectRatio="none" contentStyleType="text/css"><?plantuml 1.2026.8?><defs/><g font-family="sans-serif" lengthAdjust="spacing"><path d="M22,18.266 C19.8,18.266 18,20.506 18,23.266 C18,26.026 19.8,28.266 22,28.266 C24.2,28.266 26,26.026 26,23.266 C26,20.506 24.2,18.266 22,18.266 M17.82,28.266 C15.7,28.366 14,30.106 14,32.266 L14,34.266 L30,34.266 L30,32.266 C30,30.106 28.32,28.366 26.18,28.266 C25.1,29.486 23.62,30.266 22,30.266 C20.38,30.266 18.9,29.486 17.82,28.266" fill="#000"/><text x="39.594" y="35.203" fill="#000" font-size="24" textLength="64.336">Login</text><text x="200" y="35.203" fill="#000" font-size="24" textLength="99.973">MyName</text><line x1="196" y1="40.266" x2="346" y2="40.266" style="stroke:#000;stroke-width:2;"/><line x1="196" y1="34.266" x2="196" y2="38.266" style="stroke:#000;stroke-width:2;"/><line x1="346" y1="34.266" x2="346" y2="38.266" style="stroke:#000;stroke-width:2;"/><path d="M25,54.531 C22.24,54.531 20,56.771 20,59.531 C20,59.851 20,60.171 20.06,60.471 L14,66.531 L14,70.531 L20,70.531 L20,66.531 L24,66.531 L24,64.531 L24.06,64.471 C24.36,64.531 24.68,64.531 25,64.531 C27.76,64.531 30,62.291 30,59.531 C30,56.771 27.76,54.531 25,54.531 M26,56.531 C27.1,56.531 28,57.431 28,58.531 C28,59.631 27.1,60.531 26,60.531 C24.9,60.531 24,59.631 24,58.531 C24,57.431 24.9,56.531 26,56.531" fill="#000"/><text x="39.594" y="71.469" fill="#000" font-size="24" textLength="109.148">Password</text><text x="200" y="71.469" fill="#000" font-size="24" textLength="46.266">****</text><line x1="196" y1="76.531" x2="346" y2="76.531" style="stroke:#000;stroke-width:2;"/><line x1="196" y1="70.531" x2="196" y2="74.531" style="stroke:#000;stroke-width:2;"/><line x1="346" y1="70.531" x2="346" y2="74.531" style="stroke:#000;stroke-width:2;"/><rect x="17" y="89.531" width="168" height="36.266" fill="#EEE" style="stroke:#000;stroke-width:5;" rx="10" ry="10"/><path d="M58.525,99.797 C54.105,99.797 50.525,103.377 50.525,107.797 C50.525,112.217 54.105,115.797 58.525,115.797 C62.945,115.797 66.525,112.217 66.525,107.797 C66.525,103.377 62.945,99.797 58.525,99.797 M55.525,103.357 L58.525,106.357 L61.525,103.357 L62.965,104.797 L59.965,107.797 L62.965,110.797 L61.525,112.237 L58.525,109.237 L55.525,112.237 L54.085,110.797 L57.085,107.797 L54.085,104.797 L55.525,103.357" fill="#000"/><text x="76.119" y="116.734" fill="#000" font-size="24" textLength="77.355">Cancel</text><rect x="199" y="89.531" width="152" height="36.266" fill="#EEE" style="stroke:#000;stroke-width:5;" rx="10" ry="10"/><path d="M252.047,99.797 L252.047,101.797 L260.047,101.797 L260.047,111.797 L252.047,111.797 L252.047,113.797 L262.047,113.797 L262.047,99.797 L252.047,99.797 M254.047,103.797 L254.047,105.797 L246.047,105.797 L246.047,107.797 L254.047,107.797 L254.047,109.797 L258.047,106.797 L254.047,103.797" fill="#000"/><text x="271.641" y="116.734" fill="#000" font-size="24" textLength="34.313">OK</text><?plantuml-src BSuz2y8m60JWFR_YwD11QD4Cub12mT7FlNHuIL-ac2QIHBIe_zqOlFcvuzeGoST09egWoJ2aU0cWAM_iWxCAUtSPBV16SPYFD3608eChpmfd2k7X_9318WNuWwufzUYruUgfi2MhsQ1FgajLqjhTRQpCRrlXj4kTNdn4otR8LyIgbakvhZTV?></g></svg>