<svg xmlns="http://www.w3.org/2000/svg" xmlns:xlink="http://www.w3.org/1999/xlink" version="1.1" data-diagram-type="SALT" style="width:209px;height:59px;background:#FFFFFF;" width="209px" height="59px" viewBox="0 0 209 59" zoomAndPan="magnify" preserveAspectRatio="none" contentStyleType="text/css"><?plantuml 1.2026.8?><defs/><g font-family="sans-serif" lengthAdjust="spacing"><text x="87.295" y="17.602" fill="#000" font-size="12" textLength="56.625">Column 2</text><text x="145.92" y="17.602" fill="#000" font-size="12" textLength="56.625">Column 3</text><text x="6" y="33.734" fill="#000" font-size="12" textLength="79.295">Row header 1</text><text x="87.295" y="33.734" fill="#000" font-size="12" textLength="41.824">value 1</text><text x="145.92" y="33.734" fill="#000" font-size="12" textLength="41.824">value 2</text><text x="6" y="49.867" fill="#000" font-size="12" textLength="79.295">Row header 2</text><text x="87.295" y="49.867" fill="#000" font-size="12" textLength="61.412">A long cell</text><line x1="5" y1="5" x2="86.295" y2="5" style="stroke:#000;stroke-width:1;"/><line x1="86.295" y1="21.133" x2="144.92" y2="21.133" style="stroke:#000;stroke-width:1;"/><line x1="144.92" y1="37.266" x2="203.545" y2="37.266" style="stroke:#000;stroke-width:1;"/><line x1="86.295" y1="5" x2="144.92" y2="5" style="stroke:#000;stroke-width:1;"/><line x1="144.92" y1="21.133" x2="203.545" y2="21.133" style="stroke:#000;stroke-width:1;"/><line x1="144.92" y1="5" x2="203.545" y2="5" style="stroke:#000;stroke-width:1;"/><line x1="5" y1="53.398" x2="86.295" y2="53.398" style="stroke:#000;stroke-width:1;"/><line x1="86.295" y1="53.398" x2="144.92" y2="53.398" style="stroke:#000;stroke-width:1;"/><line x1="5" y1="37.266" x2="86.295" y2="37.266" style="stroke:#000;stroke-width:1;"/><line x1="144.92" y1="53.398" x2="203.545" y2="53.398" style="stroke:#000;stroke-width:1;"/><line x1="5" y1="21.133" x2="86.295" y2="21.133" style="stroke:#000;stroke-width:1;"/><line x1="86.295" y1="37.266" x2="144.92" y2="37.266" style="stroke:#000;stroke-width:1;"/><line x1="5" y1="5" x2="5" y2="21.133" style="stroke:#000;stroke-width:1;"/><line x1="86.295" y1="21.133" x2="86.295" y2="37.266" style="stroke:#000;stroke-width:1;"/><line x1="203.545" y1="37.266" x2="203.545" y2="53.398" style="stroke:#000;stroke-width:1;"/><line x1="86.295" y1="5" x2="86.295" y2="21.133" style="stroke:#000;stroke-width:1;"/><line x1="144.92" y1="21.133" x2="144.92" y2="37.266" style="stroke:#000;stroke-width:1;"/><line x1="203.545" y1="21.133" x2="203.545" y2="37.266" style="stroke:#000;stroke-width:1;"/><line x1="144.92" y1="5" x2="144.92" y2="21.133" style="stroke:#000;stroke-width:1;"/><line x1="203.545" y1="5" x2="203.545" y2="21.133" style="stroke:#000;stroke-width:1;"/><line x1="5" y1="37.266" x2="5" y2="53.398" style="stroke:#000;stroke-width:1;"/><line x1="5" y1="21.133" x2="5" y2="37.266" style="stroke:#000;stroke-width:1;"/><line x1="86.295" y1="37.266" x2="86.295" y2="53.398" style="stroke:#000;stroke-width:1;"/><?plantuml-src SoWkIImgAKxCAU6gLkRIKwXHSCxFAStDKp12C8svWlBB5J9I4rDIYnGCWU9bYJcbgKWi8sG588sE2ZdvUUaAoQavEK2U5bSjbqDgNWhO5Yv3FIC38pCz2m00?></g></svg>