<svg xmlns="http://www.w3.org/2000/svg" xmlns:xlink="http://www.w3.org/1999/xlink" version="1.1" data-diagram-type="SALT" style="width:266px;height:124px;background:#FFFFFF;" width="266px" height="124px" viewBox="0 0 266 124" zoomAndPan="magnify" preserveAspectRatio="none" contentStyleType="text/css"><?plantuml 1.2026.8?><defs/><g font-family="sans-serif" lengthAdjust="spacing"><text x="8" y="17.602" fill="#000" font-size="12" textLength="47.303" font-weight="700">General</text><line x1="6" y1="6" x2="6" y2="20.133" style="stroke:#000;stroke-width:1;"/><line x1="6" y1="6" x2="58.303" y2="6" style="stroke:#000;stroke-width:1;"/><line x1="58.303" y1="6" x2="58.303" y2="20.133" style="stroke:#000;stroke-width:1;"/><line x1="58.303" y1="20.133" x2="68.303" y2="20.133" style="stroke:#000;stroke-width:1;"/><text x="70.303" y="17.602" fill="#000" font-size="12" textLength="58.811">Fullscreen</text><line x1="68.303" y1="6" x2="68.303" y2="20.133" style="stroke:#000;stroke-width:1;"/><line x1="68.303" y1="6" x2="132.113" y2="6" style="stroke:#000;stroke-width:1;"/><line x1="132.113" y1="6" x2="132.113" y2="20.133" style="stroke:#000;stroke-width:1;"/><line x1="132.113" y1="20.133" x2="142.113" y2="20.133" style="stroke:#000;stroke-width:1;"/><text x="144.113" y="17.602" fill="#000" font-size="12" textLength="49.623">Behavior</text><line x1="142.113" y1="6" x2="142.113" y2="20.133" style="stroke:#000;stroke-width:1;"/><line x1="142.113" y1="6" x2="196.736" y2="6" style="stroke:#000;stroke-width:1;"/><line x1="196.736" y1="6" x2="196.736" y2="20.133" style="stroke:#000;stroke-width:1;"/><line x1="196.736" y1="20.133" x2="206.736" y2="20.133" style="stroke:#000;stroke-width:1;"/><text x="208.736" y="17.602" fill="#000" font-size="12" textLength="37.699">Saving</text><line x1="206.736" y1="6" x2="206.736" y2="20.133" style="stroke:#000;stroke-width:1;"/><line x1="206.736" y1="6" x2="249.436" y2="6" style="stroke:#000;stroke-width:1;"/><line x1="249.436" y1="6" x2="249.436" y2="20.133" style="stroke:#000;stroke-width:1;"/><line x1="249.436" y1="20.133" x2="259.436" y2="20.133" style="stroke:#000;stroke-width:1;"/><text x="8" y="35.734" fill="#000" font-size="12" textLength="88.781">Open image in:</text><rect x="98.781" y="24.133" width="95" height="17.133" fill="#EEE" style="stroke:#000;stroke-width:1;"/><text x="100.781" y="37.734" fill="#000" font-size="12" textLength="69.434">Smart Mode</text><line x1="182.781" y1="24.133" x2="182.781" y2="41.266" style="stroke:#000;stroke-width:1;"/><polygon points="185.781,30.133,191.781,30.133,188.781,36.266" fill="#000" style="stroke:#000;stroke-width:1;stroke-linejoin:miter;stroke-miterlimit:10;"/><text x="27" y="56.867" fill="#000" font-size="12" textLength="175.207">Smooth images when zoomed</text><rect x="9" y="47.332" width="10" height="10" fill="none" style="stroke:#000;stroke-width:1.5;"/><polygon points="10,51.266,13,54.266,20,45.266,13,52.266" fill="#000" style="stroke:#000;stroke-width:1.5;stroke-linejoin:miter;stroke-miterlimit:10;"/><text x="27" y="73" fill="#000" font-size="12" textLength="137.344">Confirm image deletion</text><rect x="9" y="63.465" width="10" height="10" fill="none" style="stroke:#000;stroke-width:1.5;"/><polygon points="10,67.398,13,70.398,20,61.398,13,68.398" fill="#000" style="stroke:#000;stroke-width:1.5;stroke-linejoin:miter;stroke-miterlimit:10;"/><text x="27" y="89.133" fill="#000" font-size="12" textLength="119.859">Show hidden images</text><rect x="9" y="79.598" width="10" height="10" fill="none" style="stroke:#000;stroke-width:1.5;"/><rect x="8.5" y="97.164" width="44" height="18.133" fill="#EEE" style="stroke:#000;stroke-width:2.5;" rx="5" ry="5"/><text x="14.527" y="110.766" fill="#000" font-size="12" textLength="31.945">Close</text><line x1="5" y1="5" x2="260.436" y2="5" style="stroke:#000;stroke-width:1;"/><line x1="5" y1="118.797" x2="260.436" y2="118.797" style="stroke:#000;stroke-width:1;"/><line x1="5" y1="5" x2="5" y2="21.133" style="stroke:#000;stroke-width:1;"/><line x1="260.436" y1="21.133" x2="260.436" y2="93.664" style="stroke:#000;stroke-width:1;"/><line x1="260.436" y1="5" x2="260.436" y2="21.133" style="stroke:#000;stroke-width:1;"/><line x1="5" y1="93.664" x2="5" y2="118.797" style="stroke:#000;stroke-width:1;"/><line x1="5" y1="21.133" x2="5" y2="93.664" style="stroke:#000;stroke-width:1;"/><line x1="260.436" y1="93.664" x2="260.436" y2="118.797" style="stroke:#000;stroke-width:1;"/><?plantuml-src DOx12i8m44Jl-Ogz2rLx416HOa5Fug4NeRGGpTe4agmaqOBLVtUfUflbpSnE4PCCAKgRn30HmnJMvyqUFGPfuGMxkxNn4X0z7rlKyc4eiAnO-0xUOX0376-CZPCTWl4hfctbk1CEfB1bJtrge794INzT4NhDYIUHGpNIalpL1FShKMWn6VAY1Wvgwa4RfVu_ek36qbB4XbM1NetZnJpBP_aYMtu0?></g></svg>