<svg xmlns="http://www.w3.org/2000/svg" xmlns:xlink="http://www.w3.org/1999/xlink" version="1.1" data-diagram-type="SALT" style="width:473px;height:205px;background:#FFFFFF;" width="473px" height="205px" viewBox="0 0 473 205" zoomAndPan="magnify" preserveAspectRatio="none" contentStyleType="text/css"><?plantuml 1.2026.8?><defs/><g font-family="sans-serif" lengthAdjust="spacing"><text x="7" y="18.602" fill="#000" font-size="12" textLength="66.768" font-weight="700">Workspace</text><text x="75.768" y="18.602" fill="#000" font-size="12" textLength="92.742">Project: Website</text><rect x="173.01" y="9.5" width="68" height="18.133" fill="#EEE" style="stroke:#000;stroke-width:2.5;" rx="5" ry="5"/><text x="183.689" y="23.102" fill="#000" font-size="12" textLength="46.641">Settings</text><text x="8" y="60.867" fill="#000" font-size="12" textLength="57.891" font-weight="700">Overview</text><text x="8" y="77" fill="#000" font-size="12" textLength="46.002">Projects</text><text x="8" y="93.133" fill="#000" font-size="12" textLength="32.104">Team</text><rect x="10.5" y="100.164" width="92" height="18.133" fill="#EEE" style="stroke:#000;stroke-width:2.5;" rx="5" ry="5"/><text x="21.801" y="113.766" fill="#000" font-size="12" textLength="69.398">New project</text><line x1="7" y1="41.199" x2="106" y2="41.199" style="stroke:#000;stroke-width:1;"/><line x1="7" y1="121.797" x2="106" y2="121.797" style="stroke:#000;stroke-width:1;"/><line x1="7" y1="41.199" x2="7" y2="64.398" style="stroke:#000;stroke-width:1;"/><line x1="106" y1="64.398" x2="106" y2="80.531" style="stroke:#000;stroke-width:1;"/><line x1="106" y1="41.199" x2="106" y2="64.398" style="stroke:#000;stroke-width:1;"/><line x1="7" y1="96.664" x2="7" y2="121.797" style="stroke:#000;stroke-width:1;"/><line x1="7" y1="80.531" x2="7" y2="96.664" style="stroke:#000;stroke-width:1;"/><line x1="106" y1="96.664" x2="106" y2="121.797" style="stroke:#000;stroke-width:1;"/><line x1="7" y1="64.398" x2="7" y2="80.531" style="stroke:#000;stroke-width:1;"/><line x1="106" y1="80.531" x2="106" y2="96.664" style="stroke:#000;stroke-width:1;"/><rect x="13" y="34.133" width="62.057" height="14.133" fill="#FFF" style="stroke:#FFF;stroke-width:1;"/><text x="13" y="45.734" fill="#000" font-size="12" textLength="62.057">Navigation</text><text x="111" y="60.867" fill="#000" font-size="12" textLength="38.139" font-weight="700">Active</text><line x1="109" y1="49.266" x2="109" y2="63.398" style="stroke:#000;stroke-width:1;"/><line x1="109" y1="49.266" x2="152.139" y2="49.266" style="stroke:#000;stroke-width:1;"/><line x1="152.139" y1="49.266" x2="152.139" y2="63.398" style="stroke:#000;stroke-width:1;"/><line x1="152.139" y1="63.398" x2="162.139" y2="63.398" style="stroke:#000;stroke-width:1;"/><text x="164.139" y="60.867" fill="#000" font-size="12" textLength="50.701">Archived</text><line x1="162.139" y1="49.266" x2="162.139" y2="63.398" style="stroke:#000;stroke-width:1;"/><line x1="162.139" y1="49.266" x2="217.84" y2="49.266" style="stroke:#000;stroke-width:1;"/><line x1="217.84" y1="49.266" x2="217.84" y2="63.398" style="stroke:#000;stroke-width:1;"/><line x1="217.84" y1="63.398" x2="227.84" y2="63.398" style="stroke:#000;stroke-width:1;"/><text x="113" y="78" fill="#000" font-size="12" textLength="100.389">Search projects...</text><line x1="111" y1="80.531" x2="338" y2="80.531" style="stroke:#000;stroke-width:1;"/><line x1="111" y1="77.531" x2="111" y2="79.531" style="stroke:#000;stroke-width:1;"/><line x1="338" y1="77.531" x2="338" y2="79.531" style="stroke:#000;stroke-width:1;"/><rect x="344.5" y="68.898" width="116" height="18.133" fill="#EEE" style="stroke:#000;stroke-width:2.5;" rx="5" ry="5"/><text x="361.35" y="82.5" fill="#000" font-size="12" textLength="82.301">Create project</text><line x1="109" y1="96.031" x2="465" y2="96.031" style="stroke:#AAA;stroke-width:1;stroke-dasharray:1,2;"/><text x="110" y="113.133" fill="#000" font-size="12" textLength="42.756" font-weight="700">Project</text><text x="176.412" y="113.133" fill="#000" font-size="12" textLength="38.303" font-weight="700">Status</text><text x="244.26" y="113.133" fill="#000" font-size="12" textLength="40.6" font-weight="700">Owner</text><text x="110" y="129.266" fill="#000" font-size="12" textLength="45.264">Website</text><text x="176.412" y="129.266" fill="#000" font-size="12" textLength="65.848">In progress</text><text x="244.26" y="129.266" fill="#000" font-size="12" textLength="25.793">Alex</text><text x="110" y="145.398" fill="#000" font-size="12" textLength="64.412">Mobile app</text><text x="176.412" y="145.398" fill="#000" font-size="12" textLength="50.021">Planning</text><text x="244.26" y="145.398" fill="#000" font-size="12" textLength="24.293">Sam</text><line x1="109" y1="100.531" x2="175.412" y2="100.531" style="stroke:#000;stroke-width:1;"/><line x1="175.412" y1="116.664" x2="243.26" y2="116.664" style="stroke:#000;stroke-width:1;"/><line x1="243.26" y1="132.797" x2="285.859" y2="132.797" style="stroke:#000;stroke-width:1;"/><line x1="175.412" y1="100.531" x2="243.26" y2="100.531" style="stroke:#000;stroke-width:1;"/><line x1="243.26" y1="116.664" x2="285.859" y2="116.664" style="stroke:#000;stroke-width:1;"/><line x1="243.26" y1="100.531" x2="285.859" y2="100.531" style="stroke:#000;stroke-width:1;"/><line x1="109" y1="148.93" x2="175.412" y2="148.93" style="stroke:#000;stroke-width:1;"/><line x1="175.412" y1="148.93" x2="243.26" y2="148.93" style="stroke:#000;stroke-width:1;"/><line x1="109" y1="132.797" x2="175.412" y2="132.797" style="stroke:#000;stroke-width:1;"/><line x1="243.26" y1="148.93" x2="285.859" y2="148.93" style="stroke:#000;stroke-width:1;"/><line x1="109" y1="116.664" x2="175.412" y2="116.664" style="stroke:#000;stroke-width:1;"/><line x1="175.412" y1="132.797" x2="243.26" y2="132.797" style="stroke:#000;stroke-width:1;"/><line x1="109" y1="100.531" x2="109" y2="116.664" style="stroke:#000;stroke-width:1;"/><line x1="175.412" y1="116.664" x2="175.412" y2="132.797" style="stroke:#000;stroke-width:1;"/><line x1="243.26" y1="132.797" x2="243.26" y2="148.93" style="stroke:#000;stroke-width:1;"/><line x1="285.859" y1="132.797" x2="285.859" y2="148.93" style="stroke:#000;stroke-width:1;"/><line x1="175.412" y1="100.531" x2="175.412" y2="116.664" style="stroke:#000;stroke-width:1;"/><line x1="243.26" y1="116.664" x2="243.26" y2="132.797" style="stroke:#000;stroke-width:1;"/><line x1="285.859" y1="116.664" x2="285.859" y2="132.797" style="stroke:#000;stroke-width:1;"/><line x1="243.26" y1="100.531" x2="243.26" y2="116.664" style="stroke:#000;stroke-width:1;"/><line x1="285.859" y1="100.531" x2="285.859" y2="116.664" style="stroke:#000;stroke-width:1;"/><line x1="109" y1="132.797" x2="109" y2="148.93" style="stroke:#000;stroke-width:1;"/><line x1="109" y1="116.664" x2="109" y2="132.797" style="stroke:#000;stroke-width:1;"/><line x1="175.412" y1="132.797" x2="175.412" y2="148.93" style="stroke:#000;stroke-width:1;"/><line x1="109" y1="154.43" x2="465" y2="154.43" style="stroke:#AAA;stroke-width:1;stroke-dasharray:1,2;"/><rect x="111.5" y="161.43" width="140" height="18.133" fill="#EEE" style="stroke:#000;stroke-width:2.5;" rx="5" ry="5"/><text x="133.837" y="175.031" fill="#000" font-size="12" textLength="95.326">View all projects</text><line x1="108" y1="41.199" x2="465" y2="41.199" style="stroke:#000;stroke-width:1;"/><line x1="108" y1="183.063" x2="465" y2="183.063" style="stroke:#000;stroke-width:1;"/><line x1="108" y1="41.199" x2="108" y2="64.398" style="stroke:#000;stroke-width:1;"/><line x1="465" y1="64.398" x2="465" y2="91.531" style="stroke:#000;stroke-width:1;"/><line x1="465" y1="41.199" x2="465" y2="64.398" style="stroke:#000;stroke-width:1;"/><line x1="108" y1="157.93" x2="108" y2="183.063" style="stroke:#000;stroke-width:1;"/><line x1="108" y1="149.93" x2="108" y2="157.93" style="stroke:#000;stroke-width:1;"/><line x1="465" y1="157.93" x2="465" y2="183.063" style="stroke:#000;stroke-width:1;"/><line x1="108" y1="99.531" x2="108" y2="149.93" style="stroke:#000;stroke-width:1;"/><line x1="465" y1="149.93" x2="465" y2="157.93" style="stroke:#000;stroke-width:1;"/><line x1="108" y1="91.531" x2="108" y2="99.531" style="stroke:#000;stroke-width:1;"/><line x1="465" y1="99.531" x2="465" y2="149.93" style="stroke:#000;stroke-width:1;"/><line x1="108" y1="64.398" x2="108" y2="91.531" style="stroke:#000;stroke-width:1;"/><line x1="465" y1="91.531" x2="465" y2="99.531" style="stroke:#000;stroke-width:1;"/><rect x="114" y="34.133" width="46.002" height="14.133" fill="#FFF" style="stroke:#FFF;stroke-width:1;"/><text x="114" y="45.734" fill="#000" font-size="12" textLength="46.002">Projects</text><line x1="5" y1="5" x2="467" y2="5" style="stroke:#000;stroke-width:1;"/><line x1="5" y1="199.195" x2="467" y2="199.195" style="stroke:#000;stroke-width:1;"/><line x1="5" y1="5" x2="5" y2="32.133" style="stroke:#000;stroke-width:1;"/><line x1="467" y1="32.133" x2="467" y2="199.195" style="stroke:#000;stroke-width:1;"/><line x1="467" y1="5" x2="467" y2="32.133" style="stroke:#000;stroke-width:1;"/><line x1="5" y1="32.133" x2="5" y2="199.195" style="stroke:#000;stroke-width:1;"/><?plantuml-src PL71IiGm4BttAuPwYn1r3o8Yieid3-uA5VUmh33j3ZKQqvB4LkZstqrY4XOC9CoyoRpCUraQYzeQbBQOpWk02HZRTlhJzDWGOt24PzrzK6DlOKkr4POSjAl8Mg5QiuVPzxZjphToZODeqOfEbG42HxOPI0-2HiOY5FbCJ5y8lsAuMzC8_Lzv7x0PZeaxjINcwGBkwljLOyNWHrhfvjr5Xp1Gg4DP4JeqCHhEEUHLUXaFcj09Ia_cNiuJoPbJ45yEPZ1MMRJV9YQRKP7Eok34eaVbQLjDnlZf9FtaIqzTBIG1zhrtLw9IpaeNLjc8VtFiNfs3W59cCT6Vmk-vM98wX3yihlZYSd7DRtu1?></g></svg>